<svg width="24" height="25" viewBox="0 0 24 25" fill="none" xmlns="http://www.w3.org/2000/svg">
<path d="M11.9081 19.2089L11.8124 19.3092L11.7072 19.2089C7.16319 14.8871 4.15936 12.0293 4.15936 9.13132C4.15936 7.12583 5.59431 5.62171 7.50757 5.62171C8.98079 5.62171 10.4157 6.62445 10.9228 7.98819H12.7021C13.2091 6.62445 14.6441 5.62171 16.1173 5.62171C18.0305 5.62171 19.4655 7.12583 19.4655 9.13132C19.4655 12.0293 16.4617 14.8871 11.9081 19.2089ZM16.1173 3.61621C14.4527 3.61621 12.8552 4.42844 11.8124 5.70193C10.7697 4.42844 9.17212 3.61621 7.50757 3.61621C4.56115 3.61621 2.24609 6.03283 2.24609 9.13132C2.24609 12.9117 5.49865 16.0102 10.4253 20.693L11.8124 22.0166L13.1995 20.693C18.1262 16.0102 21.3788 12.9117 21.3788 9.13132C21.3788 6.03283 19.0637 3.61621 16.1173 3.61621Z" fill="#01003C"/>
</svg>
