<svg width="16" height="16" viewBox="0 0 16 16" fill="none" xmlns="http://www.w3.org/2000/svg">
<path d="M8.00065 13.333C6.58616 13.333 5.22961 12.7711 4.22941 11.7709C3.22922 10.7707 2.66732 9.41416 2.66732 7.99967C2.66732 6.58519 3.22922 5.22863 4.22941 4.22844C5.22961 3.22824 6.58616 2.66634 8.00065 2.66634C9.41514 2.66634 10.7717 3.22824 11.7719 4.22844C12.7721 5.22863 13.334 6.58519 13.334 7.99967C13.334 9.41416 12.7721 10.7707 11.7719 11.7709C10.7717 12.7711 9.41514 13.333 8.00065 13.333ZM8.00065 1.33301C7.12517 1.33301 6.25827 1.50545 5.44943 1.84048C4.64059 2.17551 3.90566 2.66657 3.28661 3.28563C2.03636 4.53587 1.33398 6.23156 1.33398 7.99967C1.33398 9.76779 2.03636 11.4635 3.28661 12.7137C3.90566 13.3328 4.64059 13.8238 5.44943 14.1589C6.25827 14.4939 7.12517 14.6663 8.00065 14.6663C9.76876 14.6663 11.4645 13.964 12.7147 12.7137C13.9649 11.4635 14.6673 9.76779 14.6673 7.99967C14.6673 7.1242 14.4949 6.25729 14.1598 5.44845C13.8248 4.63961 13.3338 3.90469 12.7147 3.28563C12.0956 2.66657 11.3607 2.17551 10.5519 1.84048C9.74304 1.50545 8.87613 1.33301 8.00065 1.33301ZM8.00065 4.66634C7.1166 4.66634 6.26875 5.01753 5.64363 5.64265C5.01851 6.26777 4.66732 7.11562 4.66732 7.99967C4.66732 8.88373 5.01851 9.73158 5.64363 10.3567C6.26875 10.9818 7.1166 11.333 8.00065 11.333C8.88471 11.333 9.73255 10.9818 10.3577 10.3567C10.9828 9.73158 11.334 8.88373 11.334 7.99967C11.334 7.11562 10.9828 6.26777 10.3577 5.64265C9.73255 5.01753 8.88471 4.66634 8.00065 4.66634Z" fill="#01003C"/>
</svg>
