<svg width="16" height="16" viewBox="0 0 16 16" fill="none" xmlns="http://www.w3.org/2000/svg">
<path d="M10.6676 14H5.3343C5.15749 14 4.98792 13.9298 4.86289 13.8047C4.73787 13.6797 4.66763 13.5101 4.66763 13.3333V8.04667L3.80096 8.71333C3.54096 8.97333 3.12096 8.97333 2.86096 8.71333L0.974297 6.86C0.714297 6.6 0.714297 6.18 0.974297 5.92L4.8943 2H6.00096C6.00096 2.73333 6.8943 3.33333 8.00096 3.33333C9.10763 3.33333 10.001 2.73333 10.001 2H11.1076L15.0276 5.92C15.2876 6.18 15.2876 6.6 15.0276 6.86L13.141 8.74667C12.881 9 12.461 9 12.201 8.74667L11.3343 8.08V13.3333C11.3343 13.5101 11.2641 13.6797 11.139 13.8047C11.014 13.9298 10.8444 14 10.6676 14Z" fill="#01003C"/>
</svg>
